<svg width="100" height="100" viewBox="0 0 100 100" xmlns="http://www.w3.org/2000/svg">
  <pattern id="gym-pattern" x="0" y="0" width="50" height="50" patternUnits="userSpaceOnUse">
    <!-- Dumbbell -->
    <path d="M10 25h5v-5h5v-2h10v2h5v5h5v2h-5v5h-5v2h-10v-2h-5v-5h-5v-2z" fill="currentColor" opacity="0.1"/>
    
    <!-- Exercise Mat -->
    <rect x="35" y="10" width="15" height="8" rx="1" fill="currentColor" opacity="0.1"/>
    
    <!-- Water Bottle -->
    <path d="M42 30c0-1 2-2 2-4s-2-3-2-4v-2h4v2c0 1-2 2-2 4s2 3 2 4v2h-4v-2z" fill="currentColor" opacity="0.1"/>
  </pattern>
  <rect width="100%" height="100%" fill="url(#gym-pattern)"/>
</svg>